<?xml version="1.0" standalone="no"?><!DOCTYPE svg PUBLIC "-//W3C//DTD SVG 1.1//EN" "http://www.w3.org/Graphics/SVG/1.1/DTD/svg11.dtd"><svg t="1700186149536" class="icon" viewBox="0 0 1024 1024" version="1.1" xmlns="http://www.w3.org/2000/svg" p-id="4246" width="40" height="40" xmlns:xlink="http://www.w3.org/1999/xlink"><path d="M321.218 452.246h28.04l99.379 242.414h-36.203l-26.975-63.886h-96.54l-24.49 63.886h-33.717l90.506-242.414z m53.24 149.07l-38.333-99.025-37.622 99.024h75.954z m103.638-149.07h74.18c8.989 0 17.862 1.07 26.619 3.211 8.75 2.141 16.027 6.366 21.827 12.667 5.796 6.3 9.938 12.9 12.423 19.798 2.485 6.899 4.137 13.026 4.969 18.373a106.16 106.16 0 0 1 1.242 16.232c-0.238 11.657-2.013 21.468-5.323 29.431-3.317 7.97-8.463 15.106-15.439 21.407-6.982 6.305-15.084 10.764-24.313 13.381-9.229 2.618-19.166 3.92-29.814 3.92h-34.782v103.64h-31.588v-242.06z m31.59 104.704h34.427c8.04 0 14.73-0.76 20.053-2.285 5.323-1.52 9.76-3.805 13.31-6.85 3.55-3.044 6.15-6.732 7.808-11.068 1.653-4.337 2.486-9.667 2.486-15.994-0.24-7.259-1.66-13.526-4.26-18.8-2.607-5.268-6.094-9.25-10.47-11.946-4.38-2.695-9.883-4.043-16.505-4.043h-46.849v70.986z m205.5 138.066h-31.588v-242.77h31.589v242.77z m111.37-259.615l-12.087-2.902c0.018-0.504 0.018-1.01 0.018-1.514C814.487 316.849 721.64 224 607.517 224c-80.129 0-151.268 45.211-185.654 115.258-26.041-29.716-63.805-47.274-104.43-47.274-76.623 0-138.97 62.352-138.97 139 0 3.211 0.112 6.464 0.35 9.717-66.666 23.293-113.657 93.9-113.657 173.831 0 88.206 57.285 163.82 132.954 179.146h628.464c75.666-15.341 132.952-90.94 132.952-179.146s-57.287-163.803-132.97-179.132z m-23.667 327.99H221.781l-5.553-0.52c-66.106-6.156-117.893-71.32-117.893-148.322 0-70.37 43.107-131.65 102.495-145.744l15.257-3.617-2.748-15.44A107.138 107.138 0 0 1 211.657 431c0-58.335 47.453-105.788 105.776-105.788 39.418 0 75.304 21.694 93.66 56.636l18.595 35.38 11.934-38.158c22.788-72.876 89.454-121.849 165.909-121.849 95.823 0 173.778 77.955 173.778 173.792 0 5.553-0.298 11.05-0.83 16.478l-1.793 18.23h18.309l11.442 0.533c66.107 6.142 117.899 71.294 117.899 148.309 0 77.002-51.792 142.167-117.91 148.323l-5.537 0.506z" fill="#3EADFF" p-id="4247"></path></svg>